{
	"asset":{
		"generator":"Khronos glTF Blender I/O v4.0.44",
		"version":"2.0"
	},
	"scene":0,
	"scenes":[
		{
			"name":"posilovani v1",
			"nodes":[
				0,
				1
			]
		}
	],
	"nodes":[
		{
			"mesh":0,
			"name":"3MF Object",
			"scale":[
				0.0010000000474974513,
				0.0010000000474974513,
				0.0010000000474974513
			]
		},
		{
			"mesh":1,
			"name":"3MF Object.001",
			"scale":[
				0.0010000000474974513,
				0.0010000000474974513,
				0.0010000000474974513
			]
		}
	],
	"meshes":[
		{
			"name":"3MF Mesh",
			"primitives":[
				{
					"attributes":{
						"POSITION":0,
						"NORMAL":1
					},
					"indices":2
				}
			]
		},
		{
			"name":"3MF Mesh.001",
			"primitives":[
				{
					"attributes":{
						"POSITION":3,
						"NORMAL":4
					},
					"indices":5
				}
			]
		}
	],
	"accessors":[
		{
			"bufferView":0,
			"componentType":5126,
			"count":2845,
			"max":[
				30,
				59.966495513916016,
				70
			],
			"min":[
				-140,
				-59.966495513916016,
				-50
			],
			"type":"VEC3"
		},
		{
			"bufferView":1,
			"componentType":5126,
			"count":2845,
			"type":"VEC3"
		},
		{
			"bufferView":2,
			"componentType":5123,
			"count":4446,
			"type":"SCALAR"
		},
		{
			"bufferView":3,
			"componentType":5126,
			"count":1988,
			"max":[
				-140,
				59.966495513916016,
				70
			],
			"min":[
				-190,
				-59.966495513916016,
				-50
			],
			"type":"VEC3"
		},
		{
			"bufferView":4,
			"componentType":5126,
			"count":1988,
			"type":"VEC3"
		},
		{
			"bufferView":5,
			"componentType":5123,
			"count":2700,
			"type":"SCALAR"
		}
	],
	"bufferViews":[
		{
			"buffer":0,
			"byteLength":34140,
			"byteOffset":0,
			"target":34962
		},
		{
			"buffer":0,
			"byteLength":34140,
			"byteOffset":34140,
			"target":34962
		},
		{
			"buffer":0,
			"byteLength":8892,
			"byteOffset":68280,
			"target":34963
		},
		{
			"buffer":0,
			"byteLength":23856,
			"byteOffset":77172,
			"target":34962
		},
		{
			"buffer":0,
			"byteLength":23856,
			"byteOffset":101028,
			"target":34962
		},
		{
			"buffer":0,
			"byteLength":5400,
			"byteOffset":124884,
			"target":34963
		}
	],
	"buffers":[
		{
			"byteLength":130284,
			"uri":"weight.bin"
		}
	]
}
